ffmpeg started on 2016-11-27 at 17:11:46
Report written to "Output/NVENCh264/results/ffmpeg/old_town_cross_2160p50llhp500k.log"
Command line:
Tools/ffmpeg/ffmpeg -benchmark -y -i Input/y4m/old_town_cross_2160p50.y4m -c:v h264_nvenc -preset llhp -b:v 500k -an Output/NVENCh264/encoded/old_town_cross_2160p50llhp500k.mkv
ffmpeg version N-82227-gdb23fde Copyright (c) 2000-2016 the FFmpeg developers
  built with gcc 5.4.0 (Ubuntu 5.4.0-6ubuntu1~16.04.2) 20160609
  configuration: --prefix=/home/jaroslav/ffmpeg_build --pkg-config-flags=--static --extra-cflags=-I/home/jaroslav/ffmpeg_build/include --extra-ldflags=-L/home/jaroslav/ffmpeg_build/lib --bindir=/home/jaroslav/bin --enable-gpl --enable-libass --enable-libfdk-aac --enable-libfreetype --enable-libmp3lame --enable-libopus --enable-libtheora --enable-libvorbis --enable-libvpx --enable-libx264 --enable-libx265 --enable-nvenc --enable-libmfx --enable-libxvid --enable-libgsm --enable-libopencore-amrnb --enable-version3 --enable-nonfree
  libavutil      55. 35.100 / 55. 35.100
  libavcodec     57. 66.101 / 57. 66.101
  libavformat    57. 57.100 / 57. 57.100
  libavdevice    57.  2.100 / 57.  2.100
  libavfilter     6. 66.100 /  6. 66.100
  libswscale      4.  3.100 /  4.  3.100
  libswresample   2.  4.100 /  2.  4.100
  libpostproc    54.  2.100 / 54.  2.100
Input #0, yuv4mpegpipe, from 'Input/y4m/old_town_cross_2160p50.y4m':
  Duration: 00:00:10.00, start: 0.000000, bitrate: 4976642 kb/s
    Stream #0:0: Video: rawvideo (I420 / 0x30323449), yuv420p(progressive), 3840x2160, SAR 1:1 DAR 16:9, 50 fps, 50 tbr, 50 tbn, 50 tbc
[h264_nvenc @ 0x4456120] The variable bitrate rate-control requires the 'qmin' and/or 'qmax' option set.
Output #0, matroska, to 'Output/NVENCh264/encoded/old_town_cross_2160p50llhp500k.mkv':
  Metadata:
    encoder         : Lavf57.57.100
    Stream #0:0: Video: h264 (h264_nvenc) (Main) (H264 / 0x34363248), yuv420p, 3840x2160 [SAR 1:1 DAR 16:9], q=-1--1, 500 kb/s, 50 fps, 1k tbn, 50 tbc
    Metadata:
      encoder         : Lavc57.66.101 h264_nvenc
    Side data:
      cpb: bitrate max/min/avg: 0/0/500000 buffer size: 1000000 vbv_delay: -1
Stream mapping:
  Stream #0:0 -> #0:0 (rawvideo (native) -> h264 (h264_nvenc))
Press [q] to stop, [?] for help
frame=   19 fps=0.0 q=0.0 size=       0kB time=00:00:00.00 bitrate=N/A speed=   0x    frame=   37 fps= 30 q=47.0 size=       1kB time=00:00:00.12 bitrate=  49.2kbits/s speed=0.0991x    frame=   55 fps= 32 q=49.0 size=       1kB time=00:00:00.48 bitrate=  12.4kbits/s speed=0.277x    frame=   73 fps= 32 q=49.0 size=       1kB time=00:00:00.84 bitrate=   7.1kbits/s speed=0.374x    frame=   91 fps= 33 q=49.0 size=       1kB time=00:00:01.20 bitrate=   5.0kbits/s speed=0.435x    frame=  109 fps= 33 q=49.0 size=       1kB time=00:00:01.56 bitrate=   3.8kbits/s speed=0.476x    frame=  127 fps= 33 q=49.0 size=       1kB time=00:00:01.92 bitrate=   3.1kbits/s speed=0.506x    frame=  145 fps= 34 q=49.0 size=       1kB time=00:00:02.28 bitrate=   2.6kbits/s speed=0.529x    frame=  163 fps= 34 q=49.0 size=       1kB time=00:00:02.64 bitrate=   2.3kbits/s speed=0.547x    frame=  181 fps= 34 q=49.0 size=       1kB time=00:00:03.00 bitrate=   2.0kbits/s speed=0.562x    frame=  199 fps= 34 q=49.0 size=       1kB time=00:00:03.36 bitrate=   1.8kbits/s speed=0.574x    frame=  217 fps= 34 q=49.0 size=       1kB time=00:00:03.72 bitrate=   1.6kbits/s speed=0.585x    frame=  235 fps= 34 q=49.0 size=       1kB time=00:00:04.08 bitrate=   1.5kbits/s speed=0.593x    frame=  253 fps= 34 q=49.0 size=       1kB time=00:00:04.44 bitrate=   1.3kbits/s speed= 0.6x    frame=  271 fps= 34 q=49.0 size=       1kB time=00:00:04.80 bitrate=   1.2kbits/s speed=0.607x    frame=  289 fps= 34 q=49.0 size=    1114kB time=00:00:05.16 bitrate=1768.6kbits/s speed=0.613x    frame=  307 fps= 34 q=49.0 size=    1114kB time=00:00:05.52 bitrate=1653.2kbits/s speed=0.618x    frame=  325 fps= 34 q=49.0 size=    1114kB time=00:00:05.88 bitrate=1552.0kbits/s speed=0.622x    frame=  343 fps= 34 q=49.0 size=    1114kB time=00:00:06.24 bitrate=1462.5kbits/s speed=0.626x    frame=  361 fps= 34 q=49.0 size=    1114kB time=00:00:06.60 bitrate=1382.7kbits/s speed=0.63x    frame=  379 fps= 34 q=49.0 size=    1114kB time=00:00:06.96 bitrate=1311.2kbits/s speed=0.633x    frame=  397 fps= 34 q=49.0 size=    1114kB time=00:00:07.32 bitrate=1246.8kbits/s speed=0.636x    frame=  415 fps= 34 q=49.0 size=    1114kB time=00:00:07.68 bitrate=1188.3kbits/s speed=0.639x    frame=  433 fps= 35 q=49.0 size=    1114kB time=00:00:08.04 bitrate=1135.1kbits/s speed=0.641x    frame=  451 fps= 35 q=49.0 size=    1114kB time=00:00:08.40 bitrate=1086.5kbits/s speed=0.644x    frame=  469 fps= 35 q=49.0 size=    1114kB time=00:00:08.76 bitrate=1041.8kbits/s speed=0.646x    frame=  475 fps= 34 q=49.0 size=    1114kB time=00:00:08.88 bitrate=1027.8kbits/s speed=0.63x    frame=  493 fps= 34 q=49.0 size=    1114kB time=00:00:09.24 bitrate= 987.7kbits/s speed=0.632x    frame=  500 fps= 34 q=49.0 Lsize=    2536kB time=00:00:09.98 bitrate=2081.5kbits/s speed=0.671x    
video:2532kB audio:0kB subtitle:0kB other streams:0kB global headers:0kB muxing overhead: 0.167049%
bench: utime=1.132s
bench: maxrss=1420852kB
